<?xml version="1.0" encoding="utf-8"?>
<!-- Svg Vector Icons : http://www.onlinewebfonts.com/icon -->
<!DOCTYPE svg PUBLIC "-//W3C//DTD SVG 1.1//EN" "http://www.w3.org/Graphics/SVG/1.1/DTD/svg11.dtd">
<svg version="1.1" xmlns="http://www.w3.org/2000/svg" xmlns:xlink="http://www.w3.org/1999/xlink" x="0px" y="0px" viewBox="0 0 256 256" enable-background="new 0 0 256 256" xml:space="preserve">
<metadata> Svg Vector Icons : http://www.onlinewebfonts.com/icon </metadata>
<g><g><path fill="#FFFFFF" d="M206.4,10H49.6C27.8,10,10,27.8,10,49.6v156.7c0,21.8,17.8,39.6,39.6,39.6h156.7c21.8,0,39.6-17.8,39.6-39.6V49.6C246,27.8,228.2,10,206.4,10z M98.5,201.8H69V98.5h29.5V201.8z M83.7,83.8C75.6,83.8,69,77.2,69,69s6.6-14.8,14.8-14.8c8.1,0,14.8,6.6,14.8,14.8S91.9,83.8,83.7,83.8z M201.7,201.8h-29.5v-59c0-8.1-6.6-14.8-14.8-14.8s-14.8,6.6-14.8,14.8v59h-29.5V98.5h29.5v18.3c6.1-8.4,15.4-18.3,25.8-18.3c18.3,0,33.2,16.5,33.2,36.9V201.8L201.7,201.8z"/></g></g>
</svg>